<mxfile host="app.diagrams.net" modified="2024-04-21T03:47:38.248Z" agent="Mozilla/5.0 (Windows NT 10.0; Win64; x64) AppleWebKit/537.36 (KHTML, like Gecko) Chrome/124.0.0.0 Safari/537.36" etag="LMByHB4sDSW8p0O5mlKT" version="24.2.7" type="device" pages="5">
  <diagram name="Page-1" id="QU0Uc9bIUGGrQQ1nk_gZ">
    <mxGraphModel dx="1005" dy="889" grid="1" gridSize="10" guides="1" tooltips="1" connect="1" arrows="1" fold="1" page="1" pageScale="1" pageWidth="850" pageHeight="1100" math="0" shadow="0">
      <root>
        <mxCell id="0" />
        <mxCell id="1" parent="0" />
        <mxCell id="uGVKyxNW9T8hWXBBZxKg-2" style="edgeStyle=orthogonalEdgeStyle;rounded=0;orthogonalLoop=1;jettySize=auto;html=1;exitX=0;exitY=0.5;exitDx=0;exitDy=0;exitPerimeter=0;entryX=0.5;entryY=0;entryDx=0;entryDy=0;" edge="1" parent="1" source="1pWUexV15vw6I13_XNS2-1" target="1pWUexV15vw6I13_XNS2-5">
          <mxGeometry relative="1" as="geometry" />
        </mxCell>
        <mxCell id="uGVKyxNW9T8hWXBBZxKg-4" style="edgeStyle=orthogonalEdgeStyle;rounded=0;orthogonalLoop=1;jettySize=auto;html=1;exitX=1;exitY=0.5;exitDx=0;exitDy=0;exitPerimeter=0;entryX=0.5;entryY=0;entryDx=0;entryDy=0;" edge="1" parent="1" source="1pWUexV15vw6I13_XNS2-1" target="1pWUexV15vw6I13_XNS2-4">
          <mxGeometry relative="1" as="geometry" />
        </mxCell>
        <mxCell id="1pWUexV15vw6I13_XNS2-1" value="Start" style="strokeWidth=2;html=1;shape=mxgraph.flowchart.start_1;whiteSpace=wrap;" parent="1" vertex="1">
          <mxGeometry x="378" y="140" width="95" height="40" as="geometry" />
        </mxCell>
        <mxCell id="1pWUexV15vw6I13_XNS2-2" value="&lt;font style=&quot;font-size: 24px;&quot; face=&quot;Times New Roman&quot;&gt;MAIN MENU&lt;/font&gt;" style="text;strokeColor=none;align=center;fillColor=none;html=1;verticalAlign=middle;whiteSpace=wrap;rounded=0;" parent="1" vertex="1">
          <mxGeometry x="40" y="50" width="180" height="70" as="geometry" />
        </mxCell>
        <mxCell id="uGVKyxNW9T8hWXBBZxKg-5" style="edgeStyle=orthogonalEdgeStyle;rounded=0;orthogonalLoop=1;jettySize=auto;html=1;exitX=0.5;exitY=1;exitDx=0;exitDy=0;" edge="1" parent="1" source="1pWUexV15vw6I13_XNS2-4" target="oyM7OwNJAxg93yVnNe04-12">
          <mxGeometry relative="1" as="geometry" />
        </mxCell>
        <mxCell id="1pWUexV15vw6I13_XNS2-4" value="Role : Owner&lt;div&gt;Login&lt;/div&gt;" style="rounded=0;whiteSpace=wrap;html=1;" parent="1" vertex="1">
          <mxGeometry x="590" y="210" width="110" height="40" as="geometry" />
        </mxCell>
        <mxCell id="uGVKyxNW9T8hWXBBZxKg-3" style="edgeStyle=orthogonalEdgeStyle;rounded=0;orthogonalLoop=1;jettySize=auto;html=1;exitX=0.5;exitY=1;exitDx=0;exitDy=0;entryX=0;entryY=0.5;entryDx=0;entryDy=0;" edge="1" parent="1" source="1pWUexV15vw6I13_XNS2-5" target="1pWUexV15vw6I13_XNS2-9">
          <mxGeometry relative="1" as="geometry" />
        </mxCell>
        <mxCell id="1pWUexV15vw6I13_XNS2-5" value="Role : Customer" style="rounded=0;whiteSpace=wrap;html=1;" parent="1" vertex="1">
          <mxGeometry x="115" y="210" width="110" height="40" as="geometry" />
        </mxCell>
        <mxCell id="1pWUexV15vw6I13_XNS2-9" value="Raamen Shop Capstone Program&amp;nbsp;&lt;div&gt;Main Menu&lt;/div&gt;" style="rounded=1;whiteSpace=wrap;html=1;" parent="1" vertex="1">
          <mxGeometry x="336" y="280" width="174" height="80" as="geometry" />
        </mxCell>
        <mxCell id="1pWUexV15vw6I13_XNS2-40" value="" style="edgeStyle=orthogonalEdgeStyle;rounded=0;orthogonalLoop=1;jettySize=auto;html=1;" parent="1" source="1pWUexV15vw6I13_XNS2-14" target="1pWUexV15vw6I13_XNS2-39" edge="1">
          <mxGeometry relative="1" as="geometry" />
        </mxCell>
        <mxCell id="1pWUexV15vw6I13_XNS2-14" value="Option 1&lt;div&gt;Dish Menu&lt;/div&gt;" style="rhombus;whiteSpace=wrap;html=1;" parent="1" vertex="1">
          <mxGeometry x="379.75" y="400" width="92.5" height="90" as="geometry" />
        </mxCell>
        <mxCell id="1pWUexV15vw6I13_XNS2-28" value="" style="edgeStyle=orthogonalEdgeStyle;rounded=0;orthogonalLoop=1;jettySize=auto;html=1;" parent="1" source="1pWUexV15vw6I13_XNS2-15" target="1pWUexV15vw6I13_XNS2-16" edge="1">
          <mxGeometry relative="1" as="geometry" />
        </mxCell>
        <mxCell id="1pWUexV15vw6I13_XNS2-42" value="" style="edgeStyle=orthogonalEdgeStyle;rounded=0;orthogonalLoop=1;jettySize=auto;html=1;" parent="1" source="1pWUexV15vw6I13_XNS2-15" target="1pWUexV15vw6I13_XNS2-41" edge="1">
          <mxGeometry relative="1" as="geometry" />
        </mxCell>
        <mxCell id="1pWUexV15vw6I13_XNS2-15" value="Option 2&lt;div&gt;Update Dish&lt;/div&gt;" style="rhombus;whiteSpace=wrap;html=1;" parent="1" vertex="1">
          <mxGeometry x="382" y="520" width="88" height="90" as="geometry" />
        </mxCell>
        <mxCell id="1pWUexV15vw6I13_XNS2-29" value="" style="edgeStyle=orthogonalEdgeStyle;rounded=0;orthogonalLoop=1;jettySize=auto;html=1;" parent="1" source="1pWUexV15vw6I13_XNS2-16" target="1pWUexV15vw6I13_XNS2-17" edge="1">
          <mxGeometry relative="1" as="geometry" />
        </mxCell>
        <mxCell id="1pWUexV15vw6I13_XNS2-44" value="" style="edgeStyle=orthogonalEdgeStyle;rounded=0;orthogonalLoop=1;jettySize=auto;html=1;" parent="1" source="1pWUexV15vw6I13_XNS2-16" target="1pWUexV15vw6I13_XNS2-43" edge="1">
          <mxGeometry relative="1" as="geometry" />
        </mxCell>
        <mxCell id="1pWUexV15vw6I13_XNS2-16" value="Option 3&lt;div&gt;Delete Dish&lt;/div&gt;" style="rhombus;whiteSpace=wrap;html=1;" parent="1" vertex="1">
          <mxGeometry x="382.5" y="640" width="87" height="90" as="geometry" />
        </mxCell>
        <mxCell id="1pWUexV15vw6I13_XNS2-30" value="" style="edgeStyle=orthogonalEdgeStyle;rounded=0;orthogonalLoop=1;jettySize=auto;html=1;" parent="1" source="1pWUexV15vw6I13_XNS2-17" target="1pWUexV15vw6I13_XNS2-18" edge="1">
          <mxGeometry relative="1" as="geometry" />
        </mxCell>
        <mxCell id="1pWUexV15vw6I13_XNS2-46" value="" style="edgeStyle=orthogonalEdgeStyle;rounded=0;orthogonalLoop=1;jettySize=auto;html=1;" parent="1" source="1pWUexV15vw6I13_XNS2-17" target="1pWUexV15vw6I13_XNS2-45" edge="1">
          <mxGeometry relative="1" as="geometry" />
        </mxCell>
        <mxCell id="1pWUexV15vw6I13_XNS2-17" value="Option 4&lt;div&gt;Order Dish&lt;/div&gt;" style="rhombus;whiteSpace=wrap;html=1;" parent="1" vertex="1">
          <mxGeometry x="382" y="760" width="88" height="90" as="geometry" />
        </mxCell>
        <mxCell id="1pWUexV15vw6I13_XNS2-31" value="" style="edgeStyle=orthogonalEdgeStyle;rounded=0;orthogonalLoop=1;jettySize=auto;html=1;" parent="1" source="1pWUexV15vw6I13_XNS2-18" target="1pWUexV15vw6I13_XNS2-19" edge="1">
          <mxGeometry relative="1" as="geometry" />
        </mxCell>
        <mxCell id="1pWUexV15vw6I13_XNS2-18" value="Option 5&lt;div&gt;Exit Program&lt;/div&gt;" style="rhombus;whiteSpace=wrap;html=1;" parent="1" vertex="1">
          <mxGeometry x="382" y="880" width="88" height="90" as="geometry" />
        </mxCell>
        <mxCell id="1pWUexV15vw6I13_XNS2-19" value="End" style="strokeWidth=2;html=1;shape=mxgraph.flowchart.start_1;whiteSpace=wrap;" parent="1" vertex="1">
          <mxGeometry x="378.5" y="1000" width="95" height="40" as="geometry" />
        </mxCell>
        <mxCell id="1pWUexV15vw6I13_XNS2-25" value="" style="endArrow=classic;html=1;rounded=0;entryX=0.5;entryY=0;entryDx=0;entryDy=0;" parent="1" target="1pWUexV15vw6I13_XNS2-14" edge="1">
          <mxGeometry width="50" height="50" relative="1" as="geometry">
            <mxPoint x="426" y="360" as="sourcePoint" />
            <mxPoint x="580" y="360" as="targetPoint" />
            <Array as="points">
              <mxPoint x="426" y="360" />
            </Array>
          </mxGeometry>
        </mxCell>
        <mxCell id="1pWUexV15vw6I13_XNS2-27" value="" style="endArrow=classic;html=1;rounded=0;entryX=0.5;entryY=0;entryDx=0;entryDy=0;" parent="1" target="1pWUexV15vw6I13_XNS2-15" edge="1">
          <mxGeometry width="50" height="50" relative="1" as="geometry">
            <mxPoint x="425.88" y="490" as="sourcePoint" />
            <mxPoint x="425.88" y="530" as="targetPoint" />
            <Array as="points">
              <mxPoint x="425.88" y="490" />
            </Array>
          </mxGeometry>
        </mxCell>
        <mxCell id="1pWUexV15vw6I13_XNS2-32" value="Notification :&amp;nbsp;&lt;div&gt;Invalid input!&lt;/div&gt;" style="rounded=1;whiteSpace=wrap;html=1;" parent="1" vertex="1">
          <mxGeometry x="110" y="590" width="120" height="60" as="geometry" />
        </mxCell>
        <mxCell id="1pWUexV15vw6I13_XNS2-39" value="A" style="ellipse;whiteSpace=wrap;html=1;" parent="1" vertex="1">
          <mxGeometry x="558.5" y="405" width="80" height="80" as="geometry" />
        </mxCell>
        <mxCell id="1pWUexV15vw6I13_XNS2-41" value="B" style="ellipse;whiteSpace=wrap;html=1;" parent="1" vertex="1">
          <mxGeometry x="554" y="525" width="80" height="80" as="geometry" />
        </mxCell>
        <mxCell id="1pWUexV15vw6I13_XNS2-43" value="C" style="ellipse;whiteSpace=wrap;html=1;" parent="1" vertex="1">
          <mxGeometry x="553" y="645" width="80" height="80" as="geometry" />
        </mxCell>
        <mxCell id="1pWUexV15vw6I13_XNS2-45" value="D" style="ellipse;whiteSpace=wrap;html=1;" parent="1" vertex="1">
          <mxGeometry x="554" y="765" width="80" height="80" as="geometry" />
        </mxCell>
        <mxCell id="1pWUexV15vw6I13_XNS2-47" value="" style="endArrow=classic;html=1;rounded=0;exitX=0;exitY=0.5;exitDx=0;exitDy=0;entryX=0.5;entryY=1;entryDx=0;entryDy=0;" parent="1" source="1pWUexV15vw6I13_XNS2-18" target="1pWUexV15vw6I13_XNS2-32" edge="1">
          <mxGeometry width="50" height="50" relative="1" as="geometry">
            <mxPoint x="382.5" y="930" as="sourcePoint" />
            <mxPoint x="176.5" y="990" as="targetPoint" />
            <Array as="points">
              <mxPoint x="170" y="925" />
            </Array>
          </mxGeometry>
        </mxCell>
        <mxCell id="1pWUexV15vw6I13_XNS2-48" value="" style="endArrow=classic;html=1;rounded=0;exitX=0.5;exitY=0;exitDx=0;exitDy=0;entryX=0;entryY=0.5;entryDx=0;entryDy=0;" parent="1" source="1pWUexV15vw6I13_XNS2-32" target="1pWUexV15vw6I13_XNS2-9" edge="1">
          <mxGeometry width="50" height="50" relative="1" as="geometry">
            <mxPoint x="246" y="470" as="sourcePoint" />
            <mxPoint x="170" y="320" as="targetPoint" />
            <Array as="points">
              <mxPoint x="170" y="320" />
            </Array>
          </mxGeometry>
        </mxCell>
        <mxCell id="1pWUexV15vw6I13_XNS2-49" value="If role Customer :&lt;div&gt;&quot;This feature only available for owner!&quot;&lt;/div&gt;" style="rounded=1;whiteSpace=wrap;html=1;" parent="1" vertex="1">
          <mxGeometry x="240" y="590" width="120" height="60" as="geometry" />
        </mxCell>
        <mxCell id="1pWUexV15vw6I13_XNS2-50" value="" style="endArrow=classic;html=1;rounded=0;exitX=0;exitY=0.5;exitDx=0;exitDy=0;entryX=1;entryY=0.5;entryDx=0;entryDy=0;" parent="1" source="1pWUexV15vw6I13_XNS2-15" target="1pWUexV15vw6I13_XNS2-49" edge="1">
          <mxGeometry width="50" height="50" relative="1" as="geometry">
            <mxPoint x="328" y="550" as="sourcePoint" />
            <mxPoint x="378" y="500" as="targetPoint" />
            <Array as="points">
              <mxPoint x="382" y="620" />
            </Array>
          </mxGeometry>
        </mxCell>
        <mxCell id="1pWUexV15vw6I13_XNS2-51" value="" style="endArrow=classic;html=1;rounded=0;exitX=0;exitY=0.5;exitDx=0;exitDy=0;entryX=1;entryY=0.5;entryDx=0;entryDy=0;" parent="1" edge="1">
          <mxGeometry width="50" height="50" relative="1" as="geometry">
            <mxPoint x="381.5" y="685" as="sourcePoint" />
            <mxPoint x="359" y="620" as="targetPoint" />
            <Array as="points">
              <mxPoint x="382" y="620" />
            </Array>
          </mxGeometry>
        </mxCell>
        <mxCell id="1pWUexV15vw6I13_XNS2-53" value="" style="endArrow=classic;html=1;rounded=0;exitX=0.5;exitY=0;exitDx=0;exitDy=0;entryX=0;entryY=0.5;entryDx=0;entryDy=0;" parent="1" source="1pWUexV15vw6I13_XNS2-49" target="1pWUexV15vw6I13_XNS2-9" edge="1">
          <mxGeometry width="50" height="50" relative="1" as="geometry">
            <mxPoint x="330" y="530" as="sourcePoint" />
            <mxPoint x="330" y="320" as="targetPoint" />
            <Array as="points">
              <mxPoint x="300" y="320" />
            </Array>
          </mxGeometry>
        </mxCell>
        <mxCell id="oyM7OwNJAxg93yVnNe04-1" value="Yes" style="text;html=1;align=center;verticalAlign=middle;resizable=0;points=[];autosize=1;strokeColor=none;fillColor=none;" parent="1" vertex="1">
          <mxGeometry x="480" y="448" width="40" height="30" as="geometry" />
        </mxCell>
        <mxCell id="oyM7OwNJAxg93yVnNe04-2" value="No" style="text;html=1;align=center;verticalAlign=middle;resizable=0;points=[];autosize=1;strokeColor=none;fillColor=none;" parent="1" vertex="1">
          <mxGeometry x="420" y="488" width="40" height="30" as="geometry" />
        </mxCell>
        <mxCell id="oyM7OwNJAxg93yVnNe04-3" value="Yes" style="text;html=1;align=center;verticalAlign=middle;resizable=0;points=[];autosize=1;strokeColor=none;fillColor=none;" parent="1" vertex="1">
          <mxGeometry x="480" y="570" width="40" height="30" as="geometry" />
        </mxCell>
        <mxCell id="oyM7OwNJAxg93yVnNe04-4" value="Yes" style="text;html=1;align=center;verticalAlign=middle;resizable=0;points=[];autosize=1;strokeColor=none;fillColor=none;" parent="1" vertex="1">
          <mxGeometry x="480" y="690" width="40" height="30" as="geometry" />
        </mxCell>
        <mxCell id="oyM7OwNJAxg93yVnNe04-5" value="Yes" style="text;html=1;align=center;verticalAlign=middle;resizable=0;points=[];autosize=1;strokeColor=none;fillColor=none;" parent="1" vertex="1">
          <mxGeometry x="480" y="810" width="40" height="30" as="geometry" />
        </mxCell>
        <mxCell id="oyM7OwNJAxg93yVnNe04-6" value="No" style="text;html=1;align=center;verticalAlign=middle;resizable=0;points=[];autosize=1;strokeColor=none;fillColor=none;" parent="1" vertex="1">
          <mxGeometry x="420" y="610" width="40" height="30" as="geometry" />
        </mxCell>
        <mxCell id="oyM7OwNJAxg93yVnNe04-7" value="No" style="text;html=1;align=center;verticalAlign=middle;resizable=0;points=[];autosize=1;strokeColor=none;fillColor=none;" parent="1" vertex="1">
          <mxGeometry x="420" y="725" width="40" height="30" as="geometry" />
        </mxCell>
        <mxCell id="oyM7OwNJAxg93yVnNe04-8" value="No" style="text;html=1;align=center;verticalAlign=middle;resizable=0;points=[];autosize=1;strokeColor=none;fillColor=none;" parent="1" vertex="1">
          <mxGeometry x="420" y="845" width="40" height="30" as="geometry" />
        </mxCell>
        <mxCell id="oyM7OwNJAxg93yVnNe04-9" value="No" style="text;html=1;align=center;verticalAlign=middle;resizable=0;points=[];autosize=1;strokeColor=none;fillColor=none;" parent="1" vertex="1">
          <mxGeometry x="260" y="930" width="40" height="30" as="geometry" />
        </mxCell>
        <mxCell id="oyM7OwNJAxg93yVnNe04-10" value="Yes" style="text;html=1;align=center;verticalAlign=middle;resizable=0;points=[];autosize=1;strokeColor=none;fillColor=none;" parent="1" vertex="1">
          <mxGeometry x="420" y="964" width="40" height="30" as="geometry" />
        </mxCell>
        <mxCell id="oyM7OwNJAxg93yVnNe04-11" value="Yes" style="text;html=1;align=center;verticalAlign=middle;resizable=0;points=[];autosize=1;strokeColor=none;fillColor=none;" parent="1" vertex="1">
          <mxGeometry x="378" y="605" width="40" height="30" as="geometry" />
        </mxCell>
        <mxCell id="uGVKyxNW9T8hWXBBZxKg-6" style="edgeStyle=orthogonalEdgeStyle;rounded=0;orthogonalLoop=1;jettySize=auto;html=1;exitX=0.5;exitY=1;exitDx=0;exitDy=0;entryX=1;entryY=0.5;entryDx=0;entryDy=0;" edge="1" parent="1" source="oyM7OwNJAxg93yVnNe04-12" target="1pWUexV15vw6I13_XNS2-9">
          <mxGeometry relative="1" as="geometry" />
        </mxCell>
        <mxCell id="uGVKyxNW9T8hWXBBZxKg-8" style="edgeStyle=orthogonalEdgeStyle;rounded=0;orthogonalLoop=1;jettySize=auto;html=1;exitX=0;exitY=0.5;exitDx=0;exitDy=0;entryX=0;entryY=0.5;entryDx=0;entryDy=0;" edge="1" parent="1" source="oyM7OwNJAxg93yVnNe04-12" target="1pWUexV15vw6I13_XNS2-4">
          <mxGeometry relative="1" as="geometry">
            <Array as="points">
              <mxPoint x="570" y="285" />
              <mxPoint x="570" y="230" />
            </Array>
          </mxGeometry>
        </mxCell>
        <mxCell id="oyM7OwNJAxg93yVnNe04-12" value="Password" style="shape=trapezoid;perimeter=trapezoidPerimeter;whiteSpace=wrap;html=1;fixedSize=1;" parent="1" vertex="1">
          <mxGeometry x="607.5" y="270" width="75" height="30" as="geometry" />
        </mxCell>
        <mxCell id="Z92qUaTLBqvsNsqNU9rL-1" value="E" style="ellipse;whiteSpace=wrap;html=1;" parent="1" vertex="1">
          <mxGeometry x="720" y="280" width="80" height="80" as="geometry" />
        </mxCell>
        <mxCell id="Z92qUaTLBqvsNsqNU9rL-2" value="" style="endArrow=classic;html=1;rounded=0;exitX=0;exitY=0.5;exitDx=0;exitDy=0;entryX=1;entryY=0.5;entryDx=0;entryDy=0;" parent="1" source="Z92qUaTLBqvsNsqNU9rL-1" target="1pWUexV15vw6I13_XNS2-9" edge="1">
          <mxGeometry width="50" height="50" relative="1" as="geometry">
            <mxPoint x="633" y="380" as="sourcePoint" />
            <mxPoint x="650" y="320" as="targetPoint" />
          </mxGeometry>
        </mxCell>
        <mxCell id="eweXvifM9gZPgrDPm14Y-1" value="E" style="ellipse;whiteSpace=wrap;html=1;" parent="1" vertex="1">
          <mxGeometry x="20" y="340" width="80" height="80" as="geometry" />
        </mxCell>
        <mxCell id="eweXvifM9gZPgrDPm14Y-2" value="" style="endArrow=classic;html=1;rounded=0;exitX=0.5;exitY=0;exitDx=0;exitDy=0;entryX=0;entryY=0.5;entryDx=0;entryDy=0;" parent="1" source="eweXvifM9gZPgrDPm14Y-1" target="1pWUexV15vw6I13_XNS2-9" edge="1">
          <mxGeometry width="50" height="50" relative="1" as="geometry">
            <mxPoint x="90" y="420" as="sourcePoint" />
            <mxPoint x="140" y="370" as="targetPoint" />
            <Array as="points">
              <mxPoint x="60" y="320" />
              <mxPoint x="100" y="320" />
            </Array>
          </mxGeometry>
        </mxCell>
      </root>
    </mxGraphModel>
  </diagram>
  <diagram id="mvnYOyyIVOYb5d-R4tT6" name="Page-2">
    <mxGraphModel dx="933" dy="826" grid="1" gridSize="10" guides="1" tooltips="1" connect="1" arrows="1" fold="1" page="1" pageScale="1" pageWidth="850" pageHeight="1100" math="0" shadow="0">
      <root>
        <mxCell id="0" />
        <mxCell id="1" parent="0" />
        <mxCell id="sNTUoSFEVRpypDY40TmK-1" value="A" style="ellipse;whiteSpace=wrap;html=1;" parent="1" vertex="1">
          <mxGeometry x="385" y="170" width="80" height="80" as="geometry" />
        </mxCell>
        <mxCell id="UNQIiwKDKfDs7hIy6Yz3-5" style="edgeStyle=orthogonalEdgeStyle;rounded=0;orthogonalLoop=1;jettySize=auto;html=1;exitX=0.5;exitY=1;exitDx=0;exitDy=0;entryX=0.5;entryY=0;entryDx=0;entryDy=0;" edge="1" parent="1" source="evBDRSlqp9ewihbm2VRf-1" target="UNQIiwKDKfDs7hIy6Yz3-1">
          <mxGeometry relative="1" as="geometry">
            <Array as="points">
              <mxPoint x="425" y="410" />
              <mxPoint x="187" y="410" />
            </Array>
          </mxGeometry>
        </mxCell>
        <mxCell id="UNQIiwKDKfDs7hIy6Yz3-6" style="edgeStyle=orthogonalEdgeStyle;rounded=0;orthogonalLoop=1;jettySize=auto;html=1;exitX=0.5;exitY=1;exitDx=0;exitDy=0;" edge="1" parent="1" source="evBDRSlqp9ewihbm2VRf-1" target="UNQIiwKDKfDs7hIy6Yz3-2">
          <mxGeometry relative="1" as="geometry">
            <Array as="points">
              <mxPoint x="425" y="410" />
              <mxPoint x="345" y="410" />
            </Array>
          </mxGeometry>
        </mxCell>
        <mxCell id="UNQIiwKDKfDs7hIy6Yz3-7" style="edgeStyle=orthogonalEdgeStyle;rounded=0;orthogonalLoop=1;jettySize=auto;html=1;exitX=0.5;exitY=1;exitDx=0;exitDy=0;entryX=0.5;entryY=0;entryDx=0;entryDy=0;" edge="1" parent="1" source="evBDRSlqp9ewihbm2VRf-1" target="UNQIiwKDKfDs7hIy6Yz3-3">
          <mxGeometry relative="1" as="geometry">
            <Array as="points">
              <mxPoint x="425" y="410" />
              <mxPoint x="505" y="410" />
            </Array>
          </mxGeometry>
        </mxCell>
        <mxCell id="UNQIiwKDKfDs7hIy6Yz3-8" style="edgeStyle=orthogonalEdgeStyle;rounded=0;orthogonalLoop=1;jettySize=auto;html=1;exitX=0.5;exitY=1;exitDx=0;exitDy=0;entryX=0.5;entryY=0;entryDx=0;entryDy=0;" edge="1" parent="1" source="evBDRSlqp9ewihbm2VRf-1" target="UNQIiwKDKfDs7hIy6Yz3-4">
          <mxGeometry relative="1" as="geometry">
            <Array as="points">
              <mxPoint x="425" y="410" />
              <mxPoint x="665" y="410" />
            </Array>
          </mxGeometry>
        </mxCell>
        <mxCell id="evBDRSlqp9ewihbm2VRf-1" value="Display Dish Menu&lt;div&gt;(Read Data)&lt;/div&gt;" style="rounded=1;whiteSpace=wrap;html=1;" parent="1" vertex="1">
          <mxGeometry x="338" y="290" width="174" height="80" as="geometry" />
        </mxCell>
        <mxCell id="evBDRSlqp9ewihbm2VRf-2" value="E&lt;div&gt;Back to Main&lt;/div&gt;&lt;div&gt;Menu&lt;/div&gt;" style="ellipse;whiteSpace=wrap;html=1;" parent="1" vertex="1">
          <mxGeometry x="625" y="570" width="80" height="80" as="geometry" />
        </mxCell>
        <mxCell id="evBDRSlqp9ewihbm2VRf-3" value="D&lt;div&gt;To Order&amp;nbsp;&lt;/div&gt;&lt;div&gt;Dish&lt;/div&gt;" style="ellipse;whiteSpace=wrap;html=1;" parent="1" vertex="1">
          <mxGeometry x="464.5" y="570" width="80" height="80" as="geometry" />
        </mxCell>
        <mxCell id="HYF-FJ6cVnVAq1X-z9RO-1" value="" style="endArrow=classic;html=1;rounded=0;exitX=0.5;exitY=1;exitDx=0;exitDy=0;entryX=0.5;entryY=0;entryDx=0;entryDy=0;" parent="1" source="sNTUoSFEVRpypDY40TmK-1" target="evBDRSlqp9ewihbm2VRf-1" edge="1">
          <mxGeometry width="50" height="50" relative="1" as="geometry">
            <mxPoint x="512" y="280" as="sourcePoint" />
            <mxPoint x="562" y="230" as="targetPoint" />
          </mxGeometry>
        </mxCell>
        <mxCell id="G-WBGchcz1NDvstI5JMA-1" value="&lt;font style=&quot;font-size: 24px;&quot; face=&quot;Times New Roman&quot;&gt;DISH MENU&lt;/font&gt;&lt;div&gt;&lt;font style=&quot;font-size: 24px;&quot; face=&quot;Times New Roman&quot;&gt;Read&lt;/font&gt;&lt;/div&gt;" style="text;strokeColor=none;align=center;fillColor=none;html=1;verticalAlign=middle;whiteSpace=wrap;rounded=0;" parent="1" vertex="1">
          <mxGeometry x="40" y="50" width="180" height="70" as="geometry" />
        </mxCell>
        <mxCell id="UNQIiwKDKfDs7hIy6Yz3-1" value="Option 1&lt;div&gt;Sort Cat&lt;/div&gt;" style="rhombus;whiteSpace=wrap;html=1;" vertex="1" parent="1">
          <mxGeometry x="141" y="440" width="92.5" height="90" as="geometry" />
        </mxCell>
        <mxCell id="UNQIiwKDKfDs7hIy6Yz3-2" value="Option 2&lt;div&gt;Sort Price&lt;/div&gt;" style="rhombus;whiteSpace=wrap;html=1;" vertex="1" parent="1">
          <mxGeometry x="301" y="440" width="88" height="90" as="geometry" />
        </mxCell>
        <mxCell id="UNQIiwKDKfDs7hIy6Yz3-9" style="edgeStyle=orthogonalEdgeStyle;rounded=0;orthogonalLoop=1;jettySize=auto;html=1;exitX=0.5;exitY=1;exitDx=0;exitDy=0;" edge="1" parent="1" source="UNQIiwKDKfDs7hIy6Yz3-3" target="evBDRSlqp9ewihbm2VRf-3">
          <mxGeometry relative="1" as="geometry" />
        </mxCell>
        <mxCell id="UNQIiwKDKfDs7hIy6Yz3-3" value="Option 3&lt;div&gt;Order&lt;/div&gt;" style="rhombus;whiteSpace=wrap;html=1;" vertex="1" parent="1">
          <mxGeometry x="461" y="440" width="87" height="90" as="geometry" />
        </mxCell>
        <mxCell id="UNQIiwKDKfDs7hIy6Yz3-10" style="edgeStyle=orthogonalEdgeStyle;rounded=0;orthogonalLoop=1;jettySize=auto;html=1;exitX=0.5;exitY=1;exitDx=0;exitDy=0;entryX=0.5;entryY=0;entryDx=0;entryDy=0;" edge="1" parent="1" source="UNQIiwKDKfDs7hIy6Yz3-4" target="evBDRSlqp9ewihbm2VRf-2">
          <mxGeometry relative="1" as="geometry" />
        </mxCell>
        <mxCell id="UNQIiwKDKfDs7hIy6Yz3-4" value="Option 4&lt;div&gt;Back&lt;/div&gt;" style="rhombus;whiteSpace=wrap;html=1;" vertex="1" parent="1">
          <mxGeometry x="621" y="440" width="88" height="90" as="geometry" />
        </mxCell>
      </root>
    </mxGraphModel>
  </diagram>
  <diagram id="frh6ftXb8kCb90IMETEz" name="Page-3">
    <mxGraphModel dx="1088" dy="963" grid="1" gridSize="10" guides="1" tooltips="1" connect="1" arrows="1" fold="1" page="1" pageScale="1" pageWidth="850" pageHeight="1100" math="0" shadow="0">
      <root>
        <mxCell id="0" />
        <mxCell id="1" parent="0" />
        <mxCell id="W3UU7OKGA6shhPXMTe_6-1" value="&lt;font face=&quot;Times New Roman&quot;&gt;&lt;span style=&quot;font-size: 24px;&quot;&gt;UPDATE DISH&lt;/span&gt;&lt;/font&gt;&lt;div&gt;&lt;font face=&quot;Times New Roman&quot;&gt;&lt;span style=&quot;font-size: 24px;&quot;&gt;Update, Create&lt;/span&gt;&lt;/font&gt;&lt;/div&gt;" style="text;strokeColor=none;align=center;fillColor=none;html=1;verticalAlign=middle;whiteSpace=wrap;rounded=0;" parent="1" vertex="1">
          <mxGeometry x="50" y="60" width="180" height="70" as="geometry" />
        </mxCell>
        <mxCell id="Ms_lvw0ItHDmxGYXfOjc-4" style="edgeStyle=orthogonalEdgeStyle;rounded=0;orthogonalLoop=1;jettySize=auto;html=1;exitX=0.5;exitY=1;exitDx=0;exitDy=0;entryX=0.5;entryY=0;entryDx=0;entryDy=0;" parent="1" source="hIQEPnmUwpo1mYfRysHa-1" target="9JogSImUXMa0uBsxBIvC-1" edge="1">
          <mxGeometry relative="1" as="geometry" />
        </mxCell>
        <mxCell id="hIQEPnmUwpo1mYfRysHa-1" value="B" style="ellipse;whiteSpace=wrap;html=1;" parent="1" vertex="1">
          <mxGeometry x="385" y="40" width="80" height="80" as="geometry" />
        </mxCell>
        <mxCell id="9JogSImUXMa0uBsxBIvC-1" value="Option 2 Menu" style="rounded=1;whiteSpace=wrap;html=1;" parent="1" vertex="1">
          <mxGeometry x="365" y="150" width="120" height="40" as="geometry" />
        </mxCell>
        <mxCell id="Irbf0qyQBCA__wg1ceyr-37" style="edgeStyle=orthogonalEdgeStyle;rounded=0;orthogonalLoop=1;jettySize=auto;html=1;exitX=0.5;exitY=1;exitDx=0;exitDy=0;entryX=0.5;entryY=0;entryDx=0;entryDy=0;" parent="1" source="fhwysIZvmt0EqbNXSw3n-2" target="Irbf0qyQBCA__wg1ceyr-19" edge="1">
          <mxGeometry relative="1" as="geometry" />
        </mxCell>
        <mxCell id="fhwysIZvmt0EqbNXSw3n-2" value="Option 1&lt;div&gt;Add New&amp;nbsp;&lt;/div&gt;&lt;div&gt;Dish&lt;/div&gt;" style="rhombus;whiteSpace=wrap;html=1;" parent="1" vertex="1">
          <mxGeometry x="106.25" y="230" width="92.5" height="90" as="geometry" />
        </mxCell>
        <mxCell id="ACrj-eTJrK6tPgDrMF1M-1" value="E&lt;div&gt;Back to Main&lt;/div&gt;&lt;div&gt;Menu&lt;/div&gt;" style="ellipse;whiteSpace=wrap;html=1;" parent="1" vertex="1">
          <mxGeometry x="570" y="365" width="80" height="80" as="geometry" />
        </mxCell>
        <mxCell id="Irbf0qyQBCA__wg1ceyr-45" style="edgeStyle=orthogonalEdgeStyle;rounded=0;orthogonalLoop=1;jettySize=auto;html=1;exitX=0.5;exitY=1;exitDx=0;exitDy=0;entryX=0.5;entryY=0;entryDx=0;entryDy=0;" parent="1" source="ACrj-eTJrK6tPgDrMF1M-2" target="ACrj-eTJrK6tPgDrMF1M-1" edge="1">
          <mxGeometry relative="1" as="geometry" />
        </mxCell>
        <mxCell id="ACrj-eTJrK6tPgDrMF1M-2" value="Option 2&lt;div&gt;Cancel&lt;/div&gt;" style="rhombus;whiteSpace=wrap;html=1;" parent="1" vertex="1">
          <mxGeometry x="563.75" y="230" width="92.5" height="90" as="geometry" />
        </mxCell>
        <mxCell id="ACrj-eTJrK6tPgDrMF1M-3" value="" style="endArrow=classic;html=1;rounded=0;exitX=0.5;exitY=0;exitDx=0;exitDy=0;entryX=0.5;entryY=0;entryDx=0;entryDy=0;" parent="1" source="ACrj-eTJrK6tPgDrMF1M-2" edge="1">
          <mxGeometry width="50" height="50" relative="1" as="geometry">
            <mxPoint x="553.75" y="490" as="sourcePoint" />
            <mxPoint x="146.25" y="230" as="targetPoint" />
            <Array as="points">
              <mxPoint x="425" y="190" />
            </Array>
          </mxGeometry>
        </mxCell>
        <mxCell id="Irbf0qyQBCA__wg1ceyr-31" style="edgeStyle=orthogonalEdgeStyle;rounded=0;orthogonalLoop=1;jettySize=auto;html=1;exitX=0.5;exitY=1;exitDx=0;exitDy=0;entryX=0.5;entryY=0;entryDx=0;entryDy=0;" parent="1" target="Irbf0qyQBCA__wg1ceyr-7" edge="1">
          <mxGeometry relative="1" as="geometry">
            <mxPoint x="146.25" y="550" as="sourcePoint" />
          </mxGeometry>
        </mxCell>
        <mxCell id="Irbf0qyQBCA__wg1ceyr-32" style="edgeStyle=orthogonalEdgeStyle;rounded=0;orthogonalLoop=1;jettySize=auto;html=1;exitX=0.5;exitY=1;exitDx=0;exitDy=0;entryX=0.5;entryY=0;entryDx=0;entryDy=0;" parent="1" source="Irbf0qyQBCA__wg1ceyr-7" target="Irbf0qyQBCA__wg1ceyr-9" edge="1">
          <mxGeometry relative="1" as="geometry" />
        </mxCell>
        <mxCell id="Irbf0qyQBCA__wg1ceyr-7" value="Display Dish Selected&lt;div&gt;for Update&lt;/div&gt;" style="rounded=1;whiteSpace=wrap;html=1;" parent="1" vertex="1">
          <mxGeometry x="86.25" y="600" width="120" height="60" as="geometry" />
        </mxCell>
        <mxCell id="Irbf0qyQBCA__wg1ceyr-33" style="edgeStyle=orthogonalEdgeStyle;rounded=0;orthogonalLoop=1;jettySize=auto;html=1;exitX=0.5;exitY=1;exitDx=0;exitDy=0;entryX=0.5;entryY=0;entryDx=0;entryDy=0;" parent="1" source="Irbf0qyQBCA__wg1ceyr-9" target="Irbf0qyQBCA__wg1ceyr-10" edge="1">
          <mxGeometry relative="1" as="geometry" />
        </mxCell>
        <mxCell id="Irbf0qyQBCA__wg1ceyr-35" style="edgeStyle=orthogonalEdgeStyle;rounded=0;orthogonalLoop=1;jettySize=auto;html=1;exitX=0;exitY=0.5;exitDx=0;exitDy=0;entryX=0;entryY=0.5;entryDx=0;entryDy=0;" parent="1" source="Irbf0qyQBCA__wg1ceyr-9" target="9JogSImUXMa0uBsxBIvC-1" edge="1">
          <mxGeometry relative="1" as="geometry">
            <mxPoint x="30" y="160" as="targetPoint" />
            <Array as="points">
              <mxPoint x="40" y="765" />
              <mxPoint x="40" y="170" />
            </Array>
          </mxGeometry>
        </mxCell>
        <mxCell id="Irbf0qyQBCA__wg1ceyr-9" value="Continue&lt;div&gt;Update?&lt;/div&gt;" style="rhombus;whiteSpace=wrap;html=1;" parent="1" vertex="1">
          <mxGeometry x="100" y="720" width="92.5" height="90" as="geometry" />
        </mxCell>
        <mxCell id="Irbf0qyQBCA__wg1ceyr-34" style="edgeStyle=orthogonalEdgeStyle;rounded=0;orthogonalLoop=1;jettySize=auto;html=1;exitX=0.5;exitY=1;exitDx=0;exitDy=0;" parent="1" source="Irbf0qyQBCA__wg1ceyr-10" edge="1">
          <mxGeometry relative="1" as="geometry">
            <mxPoint x="146.25" y="970" as="targetPoint" />
          </mxGeometry>
        </mxCell>
        <mxCell id="Irbf0qyQBCA__wg1ceyr-10" value="User Input Update&lt;div&gt;Data&lt;/div&gt;" style="shape=hexagon;perimeter=hexagonPerimeter2;whiteSpace=wrap;html=1;fixedSize=1;" parent="1" vertex="1">
          <mxGeometry x="86.25" y="840" width="120" height="80" as="geometry" />
        </mxCell>
        <mxCell id="Irbf0qyQBCA__wg1ceyr-36" style="edgeStyle=orthogonalEdgeStyle;rounded=0;orthogonalLoop=1;jettySize=auto;html=1;exitX=-0.005;exitY=0.369;exitDx=0;exitDy=0;entryX=0;entryY=0.5;entryDx=0;entryDy=0;exitPerimeter=0;" parent="1" source="S94Qfx1j5LqQZEEEgkfl-1" target="9JogSImUXMa0uBsxBIvC-1" edge="1">
          <mxGeometry relative="1" as="geometry">
            <mxPoint x="40" y="700" as="targetPoint" />
            <Array as="points">
              <mxPoint x="40" y="1000" />
              <mxPoint x="40" y="170" />
            </Array>
            <mxPoint x="86.25" y="1000" as="sourcePoint" />
          </mxGeometry>
        </mxCell>
        <mxCell id="Irbf0qyQBCA__wg1ceyr-38" style="edgeStyle=orthogonalEdgeStyle;rounded=0;orthogonalLoop=1;jettySize=auto;html=1;exitX=1;exitY=0.5;exitDx=0;exitDy=0;" parent="1" source="Irbf0qyQBCA__wg1ceyr-19" target="Irbf0qyQBCA__wg1ceyr-20" edge="1">
          <mxGeometry relative="1" as="geometry" />
        </mxCell>
        <mxCell id="Irbf0qyQBCA__wg1ceyr-19" value="User Input New&lt;div&gt;Dish&lt;/div&gt;" style="shape=hexagon;perimeter=hexagonPerimeter2;whiteSpace=wrap;html=1;fixedSize=1;" parent="1" vertex="1">
          <mxGeometry x="92.5" y="365" width="120" height="80" as="geometry" />
        </mxCell>
        <mxCell id="Irbf0qyQBCA__wg1ceyr-39" style="edgeStyle=orthogonalEdgeStyle;rounded=0;orthogonalLoop=1;jettySize=auto;html=1;exitX=0;exitY=0.5;exitDx=0;exitDy=0;entryX=1;entryY=0.5;entryDx=0;entryDy=0;" parent="1" source="Irbf0qyQBCA__wg1ceyr-20" target="Irbf0qyQBCA__wg1ceyr-22" edge="1">
          <mxGeometry relative="1" as="geometry" />
        </mxCell>
        <mxCell id="Irbf0qyQBCA__wg1ceyr-41" style="edgeStyle=orthogonalEdgeStyle;rounded=0;orthogonalLoop=1;jettySize=auto;html=1;exitX=0.5;exitY=1;exitDx=0;exitDy=0;entryX=0.5;entryY=0;entryDx=0;entryDy=0;" parent="1" source="Irbf0qyQBCA__wg1ceyr-20" target="Irbf0qyQBCA__wg1ceyr-21" edge="1">
          <mxGeometry relative="1" as="geometry" />
        </mxCell>
        <mxCell id="Irbf0qyQBCA__wg1ceyr-20" value="Does Data&amp;nbsp;&lt;div&gt;Already Exists?&lt;/div&gt;" style="shape=parallelogram;perimeter=parallelogramPerimeter;whiteSpace=wrap;html=1;fixedSize=1;" parent="1" vertex="1">
          <mxGeometry x="365.25" y="480" width="120" height="60" as="geometry" />
        </mxCell>
        <mxCell id="Irbf0qyQBCA__wg1ceyr-42" style="edgeStyle=orthogonalEdgeStyle;rounded=0;orthogonalLoop=1;jettySize=auto;html=1;exitX=0.5;exitY=1;exitDx=0;exitDy=0;entryX=0.5;entryY=0;entryDx=0;entryDy=0;" parent="1" source="Irbf0qyQBCA__wg1ceyr-21" edge="1">
          <mxGeometry relative="1" as="geometry">
            <mxPoint x="425" y="810" as="targetPoint" />
          </mxGeometry>
        </mxCell>
        <mxCell id="Irbf0qyQBCA__wg1ceyr-21" value="User Continue Input&lt;div&gt;New Dish&amp;nbsp;&lt;/div&gt;" style="shape=hexagon;perimeter=hexagonPerimeter2;whiteSpace=wrap;html=1;fixedSize=1;" parent="1" vertex="1">
          <mxGeometry x="365.25" y="660" width="120" height="80" as="geometry" />
        </mxCell>
        <mxCell id="Irbf0qyQBCA__wg1ceyr-22" value="Continue&lt;div&gt;Update?&lt;/div&gt;" style="rhombus;whiteSpace=wrap;html=1;" parent="1" vertex="1">
          <mxGeometry x="100" y="465" width="92.5" height="90" as="geometry" />
        </mxCell>
        <mxCell id="Irbf0qyQBCA__wg1ceyr-44" style="edgeStyle=orthogonalEdgeStyle;rounded=0;orthogonalLoop=1;jettySize=auto;html=1;exitX=0.98;exitY=0.396;exitDx=0;exitDy=0;entryX=1;entryY=0.5;entryDx=0;entryDy=0;exitPerimeter=0;" parent="1" source="S94Qfx1j5LqQZEEEgkfl-2" target="9JogSImUXMa0uBsxBIvC-1" edge="1">
          <mxGeometry relative="1" as="geometry">
            <Array as="points">
              <mxPoint x="464" y="840" />
              <mxPoint x="800" y="840" />
              <mxPoint x="800" y="170" />
            </Array>
            <mxPoint x="485" y="840" as="sourcePoint" />
          </mxGeometry>
        </mxCell>
        <mxCell id="4cXOvwvEKLhLI-4VXX1K-3" style="edgeStyle=orthogonalEdgeStyle;rounded=0;orthogonalLoop=1;jettySize=auto;html=1;exitX=1;exitY=0.5;exitDx=0;exitDy=0;entryX=1;entryY=0.5;entryDx=0;entryDy=0;" parent="1" source="4cXOvwvEKLhLI-4VXX1K-1" target="9JogSImUXMa0uBsxBIvC-1" edge="1">
          <mxGeometry relative="1" as="geometry" />
        </mxCell>
        <mxCell id="4cXOvwvEKLhLI-4VXX1K-1" value="Notification :&amp;nbsp;&lt;div&gt;Invalid input!&lt;/div&gt;" style="rounded=1;whiteSpace=wrap;html=1;" parent="1" vertex="1">
          <mxGeometry x="690" y="250" width="90" height="50" as="geometry" />
        </mxCell>
        <mxCell id="S94Qfx1j5LqQZEEEgkfl-1" value="DIsh Updated!" style="whiteSpace=wrap;html=1;aspect=fixed;" parent="1" vertex="1">
          <mxGeometry x="106.25" y="970" width="80" height="80" as="geometry" />
        </mxCell>
        <mxCell id="S94Qfx1j5LqQZEEEgkfl-2" value="New Dish&lt;div&gt;Added!&lt;/div&gt;" style="whiteSpace=wrap;html=1;aspect=fixed;" parent="1" vertex="1">
          <mxGeometry x="385.25" y="810" width="80" height="80" as="geometry" />
        </mxCell>
      </root>
    </mxGraphModel>
  </diagram>
  <diagram id="bO9KTNUzjj2nQ6-ufjwE" name="Page-4">
    <mxGraphModel dx="1187" dy="1051" grid="1" gridSize="10" guides="1" tooltips="1" connect="1" arrows="1" fold="1" page="1" pageScale="1" pageWidth="850" pageHeight="1100" math="0" shadow="0">
      <root>
        <mxCell id="0" />
        <mxCell id="1" parent="0" />
        <mxCell id="baOq0GlY8u33cb_tu4H9-1" value="&lt;font face=&quot;Times New Roman&quot;&gt;&lt;span style=&quot;font-size: 24px;&quot;&gt;DELETE DISH&lt;/span&gt;&lt;/font&gt;&lt;div&gt;&lt;font face=&quot;Times New Roman&quot;&gt;&lt;span style=&quot;font-size: 24px;&quot;&gt;Delete&lt;/span&gt;&lt;/font&gt;&lt;/div&gt;" style="text;strokeColor=none;align=center;fillColor=none;html=1;verticalAlign=middle;whiteSpace=wrap;rounded=0;" parent="1" vertex="1">
          <mxGeometry x="50" y="60" width="180" height="70" as="geometry" />
        </mxCell>
        <mxCell id="1Qry8F4n6JFSW0aRxarz-2" style="edgeStyle=orthogonalEdgeStyle;rounded=0;orthogonalLoop=1;jettySize=auto;html=1;exitX=0.5;exitY=1;exitDx=0;exitDy=0;entryX=0.5;entryY=0;entryDx=0;entryDy=0;" parent="1" source="UabRJ4WYZ0IaJYOPtGe2-1" target="ahEMnvUmdRKuda8hyOO4-1" edge="1">
          <mxGeometry relative="1" as="geometry" />
        </mxCell>
        <mxCell id="UabRJ4WYZ0IaJYOPtGe2-1" value="C" style="ellipse;whiteSpace=wrap;html=1;" parent="1" vertex="1">
          <mxGeometry x="385" y="160" width="80" height="80" as="geometry" />
        </mxCell>
        <mxCell id="1Qry8F4n6JFSW0aRxarz-3" style="edgeStyle=orthogonalEdgeStyle;rounded=0;orthogonalLoop=1;jettySize=auto;html=1;exitX=0.5;exitY=1;exitDx=0;exitDy=0;entryX=0.5;entryY=0;entryDx=0;entryDy=0;" parent="1" source="ahEMnvUmdRKuda8hyOO4-1" target="TEyhHukupxdJ9RquINUU-1" edge="1">
          <mxGeometry relative="1" as="geometry" />
        </mxCell>
        <mxCell id="i-yVxIC6xRt9b5gPyKyR-2" style="edgeStyle=orthogonalEdgeStyle;rounded=0;orthogonalLoop=1;jettySize=auto;html=1;exitX=1;exitY=0.5;exitDx=0;exitDy=0;" parent="1" source="ahEMnvUmdRKuda8hyOO4-1" target="i-yVxIC6xRt9b5gPyKyR-1" edge="1">
          <mxGeometry relative="1" as="geometry" />
        </mxCell>
        <mxCell id="ahEMnvUmdRKuda8hyOO4-1" value="Option 3 Menu" style="rounded=1;whiteSpace=wrap;html=1;" parent="1" vertex="1">
          <mxGeometry x="365" y="280" width="120" height="40" as="geometry" />
        </mxCell>
        <mxCell id="1Qry8F4n6JFSW0aRxarz-4" style="edgeStyle=orthogonalEdgeStyle;rounded=0;orthogonalLoop=1;jettySize=auto;html=1;exitX=0.5;exitY=1;exitDx=0;exitDy=0;entryX=0.5;entryY=0;entryDx=0;entryDy=0;" parent="1" source="TEyhHukupxdJ9RquINUU-1" target="1Qry8F4n6JFSW0aRxarz-1" edge="1">
          <mxGeometry relative="1" as="geometry" />
        </mxCell>
        <mxCell id="TEyhHukupxdJ9RquINUU-1" value="Display Dish Menu&lt;div&gt;and user input delete&lt;/div&gt;" style="rounded=1;whiteSpace=wrap;html=1;" parent="1" vertex="1">
          <mxGeometry x="365" y="360" width="120" height="60" as="geometry" />
        </mxCell>
        <mxCell id="1Qry8F4n6JFSW0aRxarz-5" style="edgeStyle=orthogonalEdgeStyle;rounded=0;orthogonalLoop=1;jettySize=auto;html=1;exitX=1;exitY=0.5;exitDx=0;exitDy=0;entryX=1;entryY=0.5;entryDx=0;entryDy=0;" parent="1" source="1Qry8F4n6JFSW0aRxarz-1" target="TEyhHukupxdJ9RquINUU-1" edge="1">
          <mxGeometry relative="1" as="geometry">
            <Array as="points">
              <mxPoint x="540" y="490" />
              <mxPoint x="540" y="390" />
            </Array>
          </mxGeometry>
        </mxCell>
        <mxCell id="yETfUeTpswZ8mnIobhra-2" style="edgeStyle=orthogonalEdgeStyle;rounded=0;orthogonalLoop=1;jettySize=auto;html=1;exitX=0.5;exitY=1;exitDx=0;exitDy=0;entryX=0.5;entryY=0;entryDx=0;entryDy=0;" parent="1" source="1Qry8F4n6JFSW0aRxarz-1" target="1Qry8F4n6JFSW0aRxarz-6" edge="1">
          <mxGeometry relative="1" as="geometry" />
        </mxCell>
        <mxCell id="1Qry8F4n6JFSW0aRxarz-1" value="Does Data&amp;nbsp;&lt;div&gt;Exists?&lt;/div&gt;" style="shape=parallelogram;perimeter=parallelogramPerimeter;whiteSpace=wrap;html=1;fixedSize=1;" parent="1" vertex="1">
          <mxGeometry x="365" y="460" width="120" height="60" as="geometry" />
        </mxCell>
        <mxCell id="yETfUeTpswZ8mnIobhra-3" style="edgeStyle=orthogonalEdgeStyle;rounded=0;orthogonalLoop=1;jettySize=auto;html=1;exitX=0.5;exitY=1;exitDx=0;exitDy=0;entryX=0.5;entryY=0;entryDx=0;entryDy=0;" parent="1" source="1Qry8F4n6JFSW0aRxarz-6" target="yETfUeTpswZ8mnIobhra-1" edge="1">
          <mxGeometry relative="1" as="geometry" />
        </mxCell>
        <mxCell id="i-yVxIC6xRt9b5gPyKyR-3" style="edgeStyle=orthogonalEdgeStyle;rounded=0;orthogonalLoop=1;jettySize=auto;html=1;exitX=1;exitY=0.5;exitDx=0;exitDy=0;entryX=0.5;entryY=1;entryDx=0;entryDy=0;" parent="1" source="1Qry8F4n6JFSW0aRxarz-6" target="i-yVxIC6xRt9b5gPyKyR-1" edge="1">
          <mxGeometry relative="1" as="geometry" />
        </mxCell>
        <mxCell id="1Qry8F4n6JFSW0aRxarz-6" value="Display Dish&amp;nbsp;&lt;div&gt;selected and User Confirmation&lt;/div&gt;" style="rounded=1;whiteSpace=wrap;html=1;" parent="1" vertex="1">
          <mxGeometry x="365" y="560" width="120" height="60" as="geometry" />
        </mxCell>
        <mxCell id="yETfUeTpswZ8mnIobhra-1" value="Dish&lt;div&gt;Deleted!&lt;/div&gt;" style="whiteSpace=wrap;html=1;aspect=fixed;" parent="1" vertex="1">
          <mxGeometry x="385" y="660" width="80" height="80" as="geometry" />
        </mxCell>
        <mxCell id="i-yVxIC6xRt9b5gPyKyR-1" value="E&lt;div&gt;Back to Main&lt;/div&gt;&lt;div&gt;Menu&lt;/div&gt;" style="ellipse;whiteSpace=wrap;html=1;" parent="1" vertex="1">
          <mxGeometry x="620" y="260" width="80" height="80" as="geometry" />
        </mxCell>
        <mxCell id="YrajV9CDMYvLIqd3l0vw-1" value="Notification :&amp;nbsp;&lt;div&gt;Invalid input!&lt;/div&gt;" style="rounded=1;whiteSpace=wrap;html=1;" vertex="1" parent="1">
          <mxGeometry x="490" y="420" width="90" height="50" as="geometry" />
        </mxCell>
      </root>
    </mxGraphModel>
  </diagram>
  <diagram id="mkCBE90n32TDzLeFQGMP" name="Page-5">
    <mxGraphModel dx="653" dy="578" grid="1" gridSize="10" guides="1" tooltips="1" connect="1" arrows="1" fold="1" page="1" pageScale="1" pageWidth="850" pageHeight="1100" math="0" shadow="0">
      <root>
        <mxCell id="0" />
        <mxCell id="1" parent="0" />
        <mxCell id="wYbLVKjUf87PMUQErT6Q-1" value="&lt;font face=&quot;Times New Roman&quot;&gt;&lt;span style=&quot;font-size: 24px;&quot;&gt;ORDER&lt;/span&gt;&lt;/font&gt;" style="text;strokeColor=none;align=center;fillColor=none;html=1;verticalAlign=middle;whiteSpace=wrap;rounded=0;" parent="1" vertex="1">
          <mxGeometry x="50" y="60" width="180" height="70" as="geometry" />
        </mxCell>
        <mxCell id="12CiOWHf9uRA3nNEwWr1-2" style="edgeStyle=orthogonalEdgeStyle;rounded=0;orthogonalLoop=1;jettySize=auto;html=1;exitX=0.5;exitY=1;exitDx=0;exitDy=0;entryX=0.5;entryY=0;entryDx=0;entryDy=0;" edge="1" parent="1" source="3ioCYzasMufpV5SPYhtx-1" target="O_YPtI48TFafe_wXYczk-1">
          <mxGeometry relative="1" as="geometry" />
        </mxCell>
        <mxCell id="3ioCYzasMufpV5SPYhtx-1" value="D" style="ellipse;whiteSpace=wrap;html=1;" parent="1" vertex="1">
          <mxGeometry x="385" y="100" width="80" height="80" as="geometry" />
        </mxCell>
        <mxCell id="12CiOWHf9uRA3nNEwWr1-4" style="edgeStyle=orthogonalEdgeStyle;rounded=0;orthogonalLoop=1;jettySize=auto;html=1;exitX=0.5;exitY=1;exitDx=0;exitDy=0;" edge="1" parent="1" source="O_YPtI48TFafe_wXYczk-1" target="_WN849sEInXBySinBWcw-2">
          <mxGeometry relative="1" as="geometry" />
        </mxCell>
        <mxCell id="O_YPtI48TFafe_wXYczk-1" value="&lt;div&gt;&lt;br&gt;&lt;/div&gt;Display Dish Menu&lt;div&gt;&lt;br&gt;&lt;/div&gt;" style="rounded=1;whiteSpace=wrap;html=1;" parent="1" vertex="1">
          <mxGeometry x="379" y="200" width="92" height="40" as="geometry" />
        </mxCell>
        <mxCell id="12CiOWHf9uRA3nNEwWr1-20" style="edgeStyle=orthogonalEdgeStyle;rounded=0;orthogonalLoop=1;jettySize=auto;html=1;exitX=0.5;exitY=1;exitDx=0;exitDy=0;" edge="1" parent="1" source="ChD-eXDJm8yBJ7LxGVG--1" target="12CiOWHf9uRA3nNEwWr1-19">
          <mxGeometry relative="1" as="geometry" />
        </mxCell>
        <mxCell id="ChD-eXDJm8yBJ7LxGVG--1" value="User input&amp;nbsp;&lt;div&gt;order quantity&lt;/div&gt;" style="shape=hexagon;perimeter=hexagonPerimeter2;whiteSpace=wrap;html=1;fixedSize=1;" parent="1" vertex="1">
          <mxGeometry x="355" y="440" width="140" height="50" as="geometry" />
        </mxCell>
        <mxCell id="12CiOWHf9uRA3nNEwWr1-6" style="edgeStyle=orthogonalEdgeStyle;rounded=0;orthogonalLoop=1;jettySize=auto;html=1;exitX=0.5;exitY=1;exitDx=0;exitDy=0;entryX=0.5;entryY=0;entryDx=0;entryDy=0;" edge="1" parent="1" source="jYDOFBns96GWE2QwVe7T-1" target="ChD-eXDJm8yBJ7LxGVG--1">
          <mxGeometry relative="1" as="geometry" />
        </mxCell>
        <mxCell id="12CiOWHf9uRA3nNEwWr1-18" style="edgeStyle=orthogonalEdgeStyle;rounded=0;orthogonalLoop=1;jettySize=auto;html=1;exitX=0;exitY=0.5;exitDx=0;exitDy=0;entryX=0;entryY=0.5;entryDx=0;entryDy=0;" edge="1" parent="1" source="jYDOFBns96GWE2QwVe7T-1" target="O_YPtI48TFafe_wXYczk-1">
          <mxGeometry relative="1" as="geometry">
            <Array as="points">
              <mxPoint x="280" y="375" />
              <mxPoint x="280" y="220" />
            </Array>
          </mxGeometry>
        </mxCell>
        <mxCell id="jYDOFBns96GWE2QwVe7T-1" value="Does Data&amp;nbsp;&lt;div&gt;Exists?&lt;/div&gt;" style="shape=parallelogram;perimeter=parallelogramPerimeter;whiteSpace=wrap;html=1;fixedSize=1;" parent="1" vertex="1">
          <mxGeometry x="375" y="350" width="100" height="50" as="geometry" />
        </mxCell>
        <mxCell id="12CiOWHf9uRA3nNEwWr1-9" style="edgeStyle=orthogonalEdgeStyle;rounded=0;orthogonalLoop=1;jettySize=auto;html=1;exitX=0.5;exitY=1;exitDx=0;exitDy=0;entryX=0.5;entryY=0;entryDx=0;entryDy=0;" edge="1" parent="1" source="HmTom7mQd3cM5muefcK9-1" target="HmTom7mQd3cM5muefcK9-3">
          <mxGeometry relative="1" as="geometry" />
        </mxCell>
        <mxCell id="NeKKSpv-OATpfOMfReNk-7" style="edgeStyle=orthogonalEdgeStyle;rounded=0;orthogonalLoop=1;jettySize=auto;html=1;exitX=1;exitY=0.5;exitDx=0;exitDy=0;entryX=1;entryY=0.5;entryDx=0;entryDy=0;" edge="1" parent="1" source="HmTom7mQd3cM5muefcK9-1" target="O_YPtI48TFafe_wXYczk-1">
          <mxGeometry relative="1" as="geometry">
            <Array as="points">
              <mxPoint x="560" y="705" />
              <mxPoint x="560" y="220" />
            </Array>
          </mxGeometry>
        </mxCell>
        <mxCell id="HmTom7mQd3cM5muefcK9-1" value="User input&lt;div&gt;add another dish?&lt;/div&gt;" style="shape=hexagon;perimeter=hexagonPerimeter2;whiteSpace=wrap;html=1;fixedSize=1;" parent="1" vertex="1">
          <mxGeometry x="358.5" y="680" width="135" height="50" as="geometry" />
        </mxCell>
        <mxCell id="12CiOWHf9uRA3nNEwWr1-8" style="edgeStyle=orthogonalEdgeStyle;rounded=0;orthogonalLoop=1;jettySize=auto;html=1;exitX=0.5;exitY=1;exitDx=0;exitDy=0;entryX=0.5;entryY=0;entryDx=0;entryDy=0;" edge="1" parent="1" source="HmTom7mQd3cM5muefcK9-2" target="HmTom7mQd3cM5muefcK9-1">
          <mxGeometry relative="1" as="geometry" />
        </mxCell>
        <mxCell id="HmTom7mQd3cM5muefcK9-2" value="Display Cart" style="rounded=1;whiteSpace=wrap;html=1;" parent="1" vertex="1">
          <mxGeometry x="374.5" y="610" width="102" height="40" as="geometry" />
        </mxCell>
        <mxCell id="12CiOWHf9uRA3nNEwWr1-10" style="edgeStyle=orthogonalEdgeStyle;rounded=0;orthogonalLoop=1;jettySize=auto;html=1;exitX=0;exitY=0.5;exitDx=0;exitDy=0;entryX=1;entryY=0.5;entryDx=0;entryDy=0;" edge="1" parent="1" source="HmTom7mQd3cM5muefcK9-3" target="Kx0ThYvTaDVt__GRomYG-1">
          <mxGeometry relative="1" as="geometry" />
        </mxCell>
        <mxCell id="12CiOWHf9uRA3nNEwWr1-11" style="edgeStyle=orthogonalEdgeStyle;rounded=0;orthogonalLoop=1;jettySize=auto;html=1;exitX=1;exitY=0.5;exitDx=0;exitDy=0;entryX=0;entryY=0.5;entryDx=0;entryDy=0;" edge="1" parent="1" source="HmTom7mQd3cM5muefcK9-3" target="Kx0ThYvTaDVt__GRomYG-2">
          <mxGeometry relative="1" as="geometry" />
        </mxCell>
        <mxCell id="HmTom7mQd3cM5muefcK9-3" value="Display Cart&lt;div&gt;and total order&lt;/div&gt;" style="rounded=1;whiteSpace=wrap;html=1;" parent="1" vertex="1">
          <mxGeometry x="360" y="770" width="132" height="60" as="geometry" />
        </mxCell>
        <mxCell id="12CiOWHf9uRA3nNEwWr1-5" style="edgeStyle=orthogonalEdgeStyle;rounded=0;orthogonalLoop=1;jettySize=auto;html=1;exitX=0.5;exitY=1;exitDx=0;exitDy=0;entryX=0.5;entryY=0;entryDx=0;entryDy=0;" edge="1" parent="1" source="_WN849sEInXBySinBWcw-2" target="jYDOFBns96GWE2QwVe7T-1">
          <mxGeometry relative="1" as="geometry" />
        </mxCell>
        <mxCell id="_WN849sEInXBySinBWcw-2" value="User input&lt;div&gt;order&lt;/div&gt;" style="shape=hexagon;perimeter=hexagonPerimeter2;whiteSpace=wrap;html=1;fixedSize=1;" parent="1" vertex="1">
          <mxGeometry x="353" y="270" width="145" height="50" as="geometry" />
        </mxCell>
        <mxCell id="12CiOWHf9uRA3nNEwWr1-13" style="edgeStyle=orthogonalEdgeStyle;rounded=0;orthogonalLoop=1;jettySize=auto;html=1;exitX=0.5;exitY=1;exitDx=0;exitDy=0;entryX=0.5;entryY=0;entryDx=0;entryDy=0;" edge="1" parent="1" source="Kx0ThYvTaDVt__GRomYG-1" target="Kx0ThYvTaDVt__GRomYG-4">
          <mxGeometry relative="1" as="geometry" />
        </mxCell>
        <mxCell id="Kx0ThYvTaDVt__GRomYG-1" value="If order &amp;gt; 150000&lt;div&gt;get cashback 10%&lt;/div&gt;" style="rounded=0;whiteSpace=wrap;html=1;" parent="1" vertex="1">
          <mxGeometry x="190.5" y="780" width="110" height="40" as="geometry" />
        </mxCell>
        <mxCell id="12CiOWHf9uRA3nNEwWr1-12" style="edgeStyle=orthogonalEdgeStyle;rounded=0;orthogonalLoop=1;jettySize=auto;html=1;exitX=0.5;exitY=1;exitDx=0;exitDy=0;" edge="1" parent="1" source="NeKKSpv-OATpfOMfReNk-2" target="Kx0ThYvTaDVt__GRomYG-7">
          <mxGeometry relative="1" as="geometry" />
        </mxCell>
        <mxCell id="Kx0ThYvTaDVt__GRomYG-2" value="If order &amp;lt;= 150000" style="rounded=0;whiteSpace=wrap;html=1;" parent="1" vertex="1">
          <mxGeometry x="550.5" y="780" width="110" height="40" as="geometry" />
        </mxCell>
        <mxCell id="12CiOWHf9uRA3nNEwWr1-14" style="edgeStyle=orthogonalEdgeStyle;rounded=0;orthogonalLoop=1;jettySize=auto;html=1;exitX=0.5;exitY=1;exitDx=0;exitDy=0;entryX=0.5;entryY=0;entryDx=0;entryDy=0;" edge="1" parent="1" source="Kx0ThYvTaDVt__GRomYG-4" target="Kx0ThYvTaDVt__GRomYG-5">
          <mxGeometry relative="1" as="geometry" />
        </mxCell>
        <mxCell id="Kx0ThYvTaDVt__GRomYG-4" value="User input&lt;div&gt;voucher&lt;/div&gt;" style="shape=hexagon;perimeter=hexagonPerimeter2;whiteSpace=wrap;html=1;fixedSize=1;" parent="1" vertex="1">
          <mxGeometry x="178" y="860" width="135" height="50" as="geometry" />
        </mxCell>
        <mxCell id="12CiOWHf9uRA3nNEwWr1-15" style="edgeStyle=orthogonalEdgeStyle;rounded=0;orthogonalLoop=1;jettySize=auto;html=1;exitX=0.5;exitY=1;exitDx=0;exitDy=0;entryX=0.5;entryY=0;entryDx=0;entryDy=0;" edge="1" parent="1" source="Kx0ThYvTaDVt__GRomYG-5" target="Kx0ThYvTaDVt__GRomYG-6">
          <mxGeometry relative="1" as="geometry" />
        </mxCell>
        <mxCell id="Kx0ThYvTaDVt__GRomYG-5" value="Display Cart&lt;div&gt;and total order&lt;/div&gt;" style="rounded=1;whiteSpace=wrap;html=1;" parent="1" vertex="1">
          <mxGeometry x="185" y="940" width="121" height="40" as="geometry" />
        </mxCell>
        <mxCell id="12CiOWHf9uRA3nNEwWr1-16" style="edgeStyle=orthogonalEdgeStyle;rounded=0;orthogonalLoop=1;jettySize=auto;html=1;exitX=1;exitY=0.5;exitDx=0;exitDy=0;entryX=0;entryY=0.5;entryDx=0;entryDy=0;" edge="1" parent="1" source="Kx0ThYvTaDVt__GRomYG-6" target="ZXS0TqCJh1m4cGTNZv07-1">
          <mxGeometry relative="1" as="geometry" />
        </mxCell>
        <mxCell id="Kx0ThYvTaDVt__GRomYG-6" value="User input&amp;nbsp;&lt;div&gt;total amount money&lt;/div&gt;" style="shape=hexagon;perimeter=hexagonPerimeter2;whiteSpace=wrap;html=1;fixedSize=1;" parent="1" vertex="1">
          <mxGeometry x="178" y="1010" width="135" height="50" as="geometry" />
        </mxCell>
        <mxCell id="12CiOWHf9uRA3nNEwWr1-17" style="edgeStyle=orthogonalEdgeStyle;rounded=0;orthogonalLoop=1;jettySize=auto;html=1;exitX=0.5;exitY=1;exitDx=0;exitDy=0;entryX=1;entryY=0.5;entryDx=0;entryDy=0;" edge="1" parent="1" source="Kx0ThYvTaDVt__GRomYG-7" target="ZXS0TqCJh1m4cGTNZv07-1">
          <mxGeometry relative="1" as="geometry" />
        </mxCell>
        <mxCell id="Kx0ThYvTaDVt__GRomYG-7" value="User input&amp;nbsp;&lt;div&gt;total amount money&lt;/div&gt;" style="shape=hexagon;perimeter=hexagonPerimeter2;whiteSpace=wrap;html=1;fixedSize=1;" parent="1" vertex="1">
          <mxGeometry x="538" y="935" width="135" height="50" as="geometry" />
        </mxCell>
        <mxCell id="ZXS0TqCJh1m4cGTNZv07-1" value="E&lt;div&gt;Back to Main&lt;/div&gt;&lt;div&gt;Menu&lt;/div&gt;" style="ellipse;whiteSpace=wrap;html=1;" parent="1" vertex="1">
          <mxGeometry x="386" y="995" width="80" height="80" as="geometry" />
        </mxCell>
        <mxCell id="12CiOWHf9uRA3nNEwWr1-21" style="edgeStyle=orthogonalEdgeStyle;rounded=0;orthogonalLoop=1;jettySize=auto;html=1;exitX=0.5;exitY=1;exitDx=0;exitDy=0;entryX=0.5;entryY=0;entryDx=0;entryDy=0;" edge="1" parent="1" source="12CiOWHf9uRA3nNEwWr1-19" target="HmTom7mQd3cM5muefcK9-2">
          <mxGeometry relative="1" as="geometry" />
        </mxCell>
        <mxCell id="NeKKSpv-OATpfOMfReNk-5" style="edgeStyle=orthogonalEdgeStyle;rounded=0;orthogonalLoop=1;jettySize=auto;html=1;exitX=0;exitY=0.5;exitDx=0;exitDy=0;entryX=1;entryY=0.5;entryDx=0;entryDy=0;" edge="1" parent="1" source="12CiOWHf9uRA3nNEwWr1-19" target="NeKKSpv-OATpfOMfReNk-4">
          <mxGeometry relative="1" as="geometry" />
        </mxCell>
        <mxCell id="12CiOWHf9uRA3nNEwWr1-19" value="Does stock&lt;div&gt;enough?&lt;/div&gt;" style="shape=parallelogram;perimeter=parallelogramPerimeter;whiteSpace=wrap;html=1;fixedSize=1;" vertex="1" parent="1">
          <mxGeometry x="374.5" y="525" width="100" height="50" as="geometry" />
        </mxCell>
        <mxCell id="NeKKSpv-OATpfOMfReNk-1" value="Notification :&amp;nbsp;&lt;div&gt;Invalid input!&lt;/div&gt;" style="rounded=1;whiteSpace=wrap;html=1;" vertex="1" parent="1">
          <mxGeometry x="240" y="270" width="90" height="50" as="geometry" />
        </mxCell>
        <mxCell id="NeKKSpv-OATpfOMfReNk-3" value="" style="edgeStyle=orthogonalEdgeStyle;rounded=0;orthogonalLoop=1;jettySize=auto;html=1;exitX=0.5;exitY=1;exitDx=0;exitDy=0;" edge="1" parent="1" source="Kx0ThYvTaDVt__GRomYG-2" target="NeKKSpv-OATpfOMfReNk-2">
          <mxGeometry relative="1" as="geometry">
            <mxPoint x="606" y="820" as="sourcePoint" />
            <mxPoint x="606" y="935" as="targetPoint" />
          </mxGeometry>
        </mxCell>
        <mxCell id="NeKKSpv-OATpfOMfReNk-2" value="Display Cart&lt;div&gt;and total order&lt;/div&gt;" style="rounded=1;whiteSpace=wrap;html=1;" vertex="1" parent="1">
          <mxGeometry x="545" y="860" width="121" height="40" as="geometry" />
        </mxCell>
        <mxCell id="NeKKSpv-OATpfOMfReNk-6" style="edgeStyle=orthogonalEdgeStyle;rounded=0;orthogonalLoop=1;jettySize=auto;html=1;exitX=0.5;exitY=0;exitDx=0;exitDy=0;entryX=0;entryY=0.5;entryDx=0;entryDy=0;" edge="1" parent="1" source="NeKKSpv-OATpfOMfReNk-4" target="ChD-eXDJm8yBJ7LxGVG--1">
          <mxGeometry relative="1" as="geometry" />
        </mxCell>
        <mxCell id="NeKKSpv-OATpfOMfReNk-4" value="Notification :&amp;nbsp;&lt;div&gt;Stock not enough!&lt;/div&gt;" style="rounded=1;whiteSpace=wrap;html=1;" vertex="1" parent="1">
          <mxGeometry x="240" y="525" width="90" height="50" as="geometry" />
        </mxCell>
      </root>
    </mxGraphModel>
  </diagram>
</mxfile>
